<svg viewBox="0 0 256 256" xmlns="http://www.w3.org/2000/svg"><path d="m208 223.999h-.00195l-48.00586-.00634a16.01856 16.01856 0 0 1 -15.99805-16v-48.001h-32v48.001a16.01856 16.01856 0 0 1 -15.99805 16l-47.99409.00634a15.99994 15.99994 0 0 1 -16.002-16v-92.46043a16.03108 16.03108 0 0 1 5.2373-11.83886l79.99317-72.73389a15.93657 15.93657 0 0 1 21.52637-.00146l80.00683 72.73584a16.03567 16.03567 0 0 1 5.23633 11.83886v92.46a15.99994 15.99994 0 0 1 -16 16zm-96.00586-80.0073h32a16.01833 16.01833 0 0 1 16 16v48.01123l48.00586-.00393v-92.46l-80.00586-72.73529-79.99414 72.73486v92.46043l47.99414-.00634v-48.001a16.01833 16.01833 0 0 1 16-15.99996z"/></svg>